<svg width="138" height="80" viewBox="0 0 138 80" fill="none" xmlns="http://www.w3.org/2000/svg">
<g opacity="0.8" clip-path="url(#clip0_12_127)">
<path fill-rule="evenodd" clip-rule="evenodd" d="M43 41.5111C49.3574 41.5111 54.5111 36.3574 54.5111 30C54.5111 23.6426 49.3574 18.4889 43 18.4889C36.6426 18.4889 31.4889 23.6426 31.4889 30C31.4889 36.3574 36.6426 41.5111 43 41.5111ZM43 44C50.732 44 57 37.732 57 30C57 22.268 50.732 16 43 16C35.268 16 29 22.268 29 30C29 37.732 35.268 44 43 44Z" fill="#FBAF17"/>
<path fill-rule="evenodd" clip-rule="evenodd" d="M77 41.5111C83.3574 41.5111 88.5111 36.3574 88.5111 30C88.5111 23.6426 83.3574 18.4889 77 18.4889C70.6426 18.4889 65.4889 23.6426 65.4889 30C65.4889 36.3574 70.6426 41.5111 77 41.5111ZM77 44C84.732 44 91 37.732 91 30C91 22.268 84.732 16 77 16C69.268 16 63 22.268 63 30C63 37.732 69.268 44 77 44Z" fill="#FBAF17"/>
<path fill-rule="evenodd" clip-rule="evenodd" d="M77 6.48572C81.6865 6.48572 85.4857 2.68653 85.4857 -2C85.4857 -6.68653 81.6865 -10.4857 77 -10.4857C72.3135 -10.4857 68.5143 -6.68653 68.5143 -2C68.5143 2.68653 72.3135 6.48572 77 6.48572ZM77 9C83.0751 9 88 4.07513 88 -2C88 -8.07513 83.0751 -13 77 -13C70.9249 -13 66 -8.07513 66 -2C66 4.07513 70.9249 9 77 9Z" fill="#FBAF17"/>
<path fill-rule="evenodd" clip-rule="evenodd" d="M128.4 65C128.4 66.9882 130.012 68.6 132 68.6C133.988 68.6 135.6 66.9882 135.6 65C135.6 63.0118 133.988 61.4 132 61.4C130.012 61.4 128.4 63.0118 128.4 65ZM126 65C126 68.3137 128.686 71 132 71C135.314 71 138 68.3137 138 65C138 61.6863 135.314 59 132 59C128.686 59 126 61.6863 126 65Z" fill="#FBAF17"/>
<path fill-rule="evenodd" clip-rule="evenodd" d="M128.4 30C128.4 31.9882 130.012 33.6 132 33.6C133.988 33.6 135.6 31.9882 135.6 30C135.6 28.0118 133.988 26.4 132 26.4C130.012 26.4 128.4 28.0118 128.4 30ZM126 30C126 33.3137 128.686 36 132 36C135.314 36 138 33.3137 138 30C138 26.6863 135.314 24 132 24C128.686 24 126 26.6863 126 30Z" fill="#FBAF17"/>
<path fill-rule="evenodd" clip-rule="evenodd" d="M19.4857 30C19.4857 25.3135 15.6865 21.5143 11 21.5143C6.31347 21.5143 2.51429 25.3135 2.51429 30C2.51429 34.6865 6.31347 38.4857 11 38.4857C15.6865 38.4857 19.4857 34.6865 19.4857 30ZM22 30C22 23.9249 17.0751 19 11 19C4.92487 19 -7.46378e-07 23.9249 -4.80825e-07 30C-2.15273e-07 36.0751 4.92487 41 11 41C17.0751 41 22 36.0751 22 30Z" fill="#FBAF17"/>
<path fill-rule="evenodd" clip-rule="evenodd" d="M117.486 30C117.486 25.3135 113.687 21.5143 109 21.5143C104.313 21.5143 100.514 25.3135 100.514 30C100.514 34.6865 104.313 38.4857 109 38.4857C113.687 38.4857 117.486 34.6865 117.486 30ZM120 30C120 23.9249 115.075 19 109 19C102.925 19 98 23.9249 98 30C98 36.0751 102.925 41 109 41C115.075 41 120 36.0751 120 30Z" fill="#FBAF17"/>
<path fill-rule="evenodd" clip-rule="evenodd" d="M117.486 -2C117.486 -6.68653 113.687 -10.4857 109 -10.4857C104.313 -10.4857 100.514 -6.68653 100.514 -2C100.514 2.68653 104.313 6.48571 109 6.48571C113.687 6.48571 117.486 2.68653 117.486 -2ZM120 -2C120 -8.07513 115.075 -13 109 -13C102.925 -13 98 -8.07513 98 -2C98 4.07513 102.925 9 109 9C115.075 9 120 4.07513 120 -2Z" fill="#FBAF17"/>
<path fill-rule="evenodd" clip-rule="evenodd" d="M19.4857 -2C19.4857 -6.68653 15.6865 -10.4857 11 -10.4857C6.31347 -10.4857 2.51429 -6.68653 2.51429 -2C2.51429 2.68653 6.31347 6.48571 11 6.48571C15.6865 6.48571 19.4857 2.68653 19.4857 -2ZM22 -2C22 -8.07513 17.0751 -13 11 -13C4.92487 -13 -7.46378e-07 -8.07513 -4.80825e-07 -2C-2.15273e-07 4.07513 4.92487 9 11 9C17.0751 9 22 4.07513 22 -2Z" fill="#FBAF17"/>
<path fill-rule="evenodd" clip-rule="evenodd" d="M43 6.48572C47.6865 6.48572 51.4857 2.68653 51.4857 -2C51.4857 -6.68653 47.6865 -10.4857 43 -10.4857C38.3135 -10.4857 34.5143 -6.68653 34.5143 -2C34.5143 2.68653 38.3135 6.48572 43 6.48572ZM43 9C49.0751 9 54 4.07513 54 -2C54 -8.07513 49.0751 -13 43 -13C36.9249 -13 32 -8.07513 32 -2C32 4.07513 36.9249 9 43 9Z" fill="#FBAF17"/>
<path fill-rule="evenodd" clip-rule="evenodd" d="M19.4857 65C19.4857 60.3135 15.6865 56.5143 11 56.5143C6.31347 56.5143 2.51429 60.3135 2.51429 65C2.51429 69.6865 6.31347 73.4857 11 73.4857C15.6865 73.4857 19.4857 69.6865 19.4857 65ZM22 65C22 58.9249 17.0751 54 11 54C4.92487 54 -7.46378e-07 58.9249 -4.80825e-07 65C-2.15273e-07 71.0751 4.92487 76 11 76C17.0751 76 22 71.0751 22 65Z" fill="#FBAF17"/>
<path fill-rule="evenodd" clip-rule="evenodd" d="M117.486 65C117.486 60.3135 113.687 56.5143 109 56.5143C104.313 56.5143 100.514 60.3135 100.514 65C100.514 69.6865 104.313 73.4857 109 73.4857C113.687 73.4857 117.486 69.6865 117.486 65ZM120 65C120 58.9249 115.075 54 109 54C102.925 54 98 58.9249 98 65C98 71.0751 102.925 76 109 76C115.075 76 120 71.0751 120 65Z" fill="#FBAF17"/>
<path fill-rule="evenodd" clip-rule="evenodd" d="M77 76.5111C83.3574 76.5111 88.5111 71.3574 88.5111 65C88.5111 58.6426 83.3574 53.4889 77 53.4889C70.6426 53.4889 65.4889 58.6426 65.4889 65C65.4889 71.3574 70.6426 76.5111 77 76.5111ZM77 79C84.732 79 91 72.732 91 65C91 57.268 84.732 51 77 51C69.268 51 63 57.268 63 65C63 72.732 69.268 79 77 79Z" fill="#FBAF17"/>
<path fill-rule="evenodd" clip-rule="evenodd" d="M43 76.5111C49.3574 76.5111 54.5111 71.3574 54.5111 65C54.5111 58.6426 49.3574 53.4889 43 53.4889C36.6426 53.4889 31.4889 58.6426 31.4889 65C31.4889 71.3574 36.6426 76.5111 43 76.5111ZM43 79C50.732 79 57 72.732 57 65C57 57.268 50.732 51 43 51C35.268 51 29 57.268 29 65C29 72.732 35.268 79 43 79Z" fill="#FBAF17"/>
</g>
<defs>
<clipPath id="clip0_12_127">
<rect width="156" height="80" fill="white" transform="translate(-18)"/>
</clipPath>
</defs>
</svg>
