<svg width="1253" height="456" viewBox="0 0 1253 456" fill="none" xmlns="http://www.w3.org/2000/svg">
<g opacity="0.8">
<circle cx="1100.5" cy="125.5" r="20.5" stroke="#FBAF17" stroke-width="4"/>
<circle cx="1155.5" cy="125.5" r="20.5" stroke="#FBAF17" stroke-width="4"/>
<circle cx="1155.5" cy="74.5" r="15.5" stroke="#FBAF17" stroke-width="4"/>
<circle cx="1156" cy="36" r="8" stroke="#FBAF17" stroke-width="4"/>
<circle cx="1156" cy="268" r="8" stroke="#FBAF17" stroke-width="4"/>
<circle cx="1013" cy="180" r="8" transform="rotate(90 1013 180)" stroke="#FBAF17" stroke-width="4"/>
<circle cx="1243" cy="181" r="8" transform="rotate(90 1243 181)" stroke="#FBAF17" stroke-width="4"/>
<circle cx="1101" cy="36" r="8" stroke="#FBAF17" stroke-width="4"/>
<circle cx="1101" cy="268" r="8" stroke="#FBAF17" stroke-width="4"/>
<circle cx="1013" cy="125" r="8" transform="rotate(90 1013 125)" stroke="#FBAF17" stroke-width="4"/>
<circle cx="1243" cy="125" r="8" transform="rotate(90 1243 125)" stroke="#FBAF17" stroke-width="4"/>
<circle cx="1155.5" cy="230.5" r="15.5" stroke="#FBAF17" stroke-width="4"/>
<circle cx="1050.5" cy="125.5" r="15.5" transform="rotate(-90 1050.5 125.5)" stroke="#FBAF17" stroke-width="4"/>
<circle cx="1205.5" cy="125.5" r="15.5" transform="rotate(-90 1205.5 125.5)" stroke="#FBAF17" stroke-width="4"/>
<circle cx="1205.5" cy="74.5" r="15.5" transform="rotate(-90 1205.5 74.5)" stroke="#FBAF17" stroke-width="4"/>
<circle cx="1205.5" cy="230.5" r="15.5" transform="rotate(-90 1205.5 230.5)" stroke="#FBAF17" stroke-width="4"/>
<circle cx="1050.5" cy="230.5" r="15.5" transform="rotate(-90 1050.5 230.5)" stroke="#FBAF17" stroke-width="4"/>
<circle cx="1050.5" cy="74.5" r="15.5" transform="rotate(-90 1050.5 74.5)" stroke="#FBAF17" stroke-width="4"/>
<circle cx="1100.5" cy="74.5" r="15.5" stroke="#FBAF17" stroke-width="4"/>
<circle cx="1100.5" cy="230.5" r="15.5" stroke="#FBAF17" stroke-width="4"/>
<circle cx="1050.5" cy="180.5" r="15.5" transform="rotate(-90 1050.5 180.5)" stroke="#FBAF17" stroke-width="4"/>
<circle cx="1205.5" cy="180.5" r="15.5" transform="rotate(-90 1205.5 180.5)" stroke="#FBAF17" stroke-width="4"/>
<circle cx="1155.5" cy="180.5" r="20.5" stroke="#FBAF17" stroke-width="4"/>
<circle cx="1100.5" cy="180.5" r="20.5" stroke="#FBAF17" stroke-width="4"/>
</g>
<path d="M0 0H1058C1066.28 0 1073 6.71573 1073 15V456H0V0Z" fill="#202332"/>
<g opacity="0.3">
<path fill-rule="evenodd" clip-rule="evenodd" d="M370.69 46.8254C374.745 46.8254 378.032 43.5386 378.032 39.4841C378.032 35.4296 374.745 32.1428 370.69 32.1428C366.636 32.1428 363.349 35.4296 363.349 39.4841C363.349 43.5386 366.636 46.8254 370.69 46.8254ZM370.69 48.4127C375.622 48.4127 379.619 44.4152 379.619 39.4841C379.619 34.553 375.622 30.5555 370.69 30.5555C365.759 30.5555 361.762 34.553 361.762 39.4841C361.762 44.4152 365.759 48.4127 370.69 48.4127Z" fill="#BDBDBD"/>
<path fill-rule="evenodd" clip-rule="evenodd" d="M392.516 46.8254C396.57 46.8254 399.857 43.5386 399.857 39.4841C399.857 35.4296 396.57 32.1428 392.516 32.1428C388.461 32.1428 385.175 35.4296 385.175 39.4841C385.175 43.5386 388.461 46.8254 392.516 46.8254ZM392.516 48.4127C397.447 48.4127 401.444 44.4152 401.444 39.4841C401.444 34.553 397.447 30.5555 392.516 30.5555C387.585 30.5555 383.587 34.553 383.587 39.4841C383.587 44.4152 387.585 48.4127 392.516 48.4127Z" fill="#BDBDBD"/>
<path fill-rule="evenodd" clip-rule="evenodd" d="M392.516 24.6032C395.475 24.6032 397.873 22.2047 397.873 19.246C397.873 16.2874 395.475 13.8889 392.516 13.8889C389.557 13.8889 387.159 16.2874 387.159 19.246C387.159 22.2047 389.557 24.6032 392.516 24.6032ZM392.516 26.1905C396.351 26.1905 399.46 23.0814 399.46 19.246C399.46 15.4107 396.351 12.3016 392.516 12.3016C388.681 12.3016 385.571 15.4107 385.571 19.246C385.571 23.0814 388.681 26.1905 392.516 26.1905Z" fill="#BDBDBD"/>
<path fill-rule="evenodd" clip-rule="evenodd" d="M392.714 6.34921C394.029 6.34921 395.095 5.28322 395.095 3.96825C395.095 2.65329 394.029 1.5873 392.714 1.5873C391.399 1.5873 390.333 2.65329 390.333 3.96825C390.333 5.28322 391.399 6.34921 392.714 6.34921ZM392.714 7.93651C394.906 7.93651 396.683 6.15986 396.683 3.96825C396.683 1.77665 394.906 0 392.714 0C390.523 0 388.746 1.77665 388.746 3.96825C388.746 6.15986 390.523 7.93651 392.714 7.93651Z" fill="#BDBDBD"/>
<path fill-rule="evenodd" clip-rule="evenodd" d="M392.714 98.4127C394.029 98.4127 395.095 97.3467 395.095 96.0318C395.095 94.7168 394.029 93.6508 392.714 93.6508C391.399 93.6508 390.333 94.7168 390.333 96.0318C390.333 97.3467 391.399 98.4127 392.714 98.4127ZM392.714 100C394.906 100 396.683 98.2234 396.683 96.0318C396.683 93.8402 394.906 92.0635 392.714 92.0635C390.523 92.0635 388.746 93.8402 388.746 96.0318C388.746 98.2234 390.523 100 392.714 100Z" fill="#BDBDBD"/>
<path fill-rule="evenodd" clip-rule="evenodd" d="M333.587 61.1111C333.587 62.4261 334.653 63.4921 335.968 63.4921C337.283 63.4921 338.349 62.4261 338.349 61.1111C338.349 59.7962 337.283 58.7302 335.968 58.7302C334.653 58.7302 333.587 59.7962 333.587 61.1111ZM332 61.1111C332 63.3027 333.777 65.0794 335.968 65.0794C338.16 65.0794 339.937 63.3027 339.937 61.1111C339.937 58.9195 338.16 57.1429 335.968 57.1429C333.777 57.1429 332 58.9195 332 61.1111Z" fill="#BDBDBD"/>
<path fill-rule="evenodd" clip-rule="evenodd" d="M424.857 61.5079C424.857 62.8229 425.923 63.8889 427.238 63.8889C428.553 63.8889 429.619 62.8229 429.619 61.5079C429.619 60.193 428.553 59.127 427.238 59.127C425.923 59.127 424.857 60.193 424.857 61.5079ZM423.27 61.5079C423.27 63.6995 425.046 65.4762 427.238 65.4762C429.43 65.4762 431.206 63.6995 431.206 61.5079C431.206 59.3163 429.43 57.5397 427.238 57.5397C425.046 57.5397 423.27 59.3163 423.27 61.5079Z" fill="#BDBDBD"/>
<path fill-rule="evenodd" clip-rule="evenodd" d="M370.889 6.34921C372.204 6.34921 373.27 5.28322 373.27 3.96825C373.27 2.65329 372.204 1.5873 370.889 1.5873C369.574 1.5873 368.508 2.65329 368.508 3.96825C368.508 5.28322 369.574 6.34921 370.889 6.34921ZM370.889 7.93651C373.08 7.93651 374.857 6.15986 374.857 3.96825C374.857 1.77665 373.08 0 370.889 0C368.697 0 366.921 1.77665 366.921 3.96825C366.921 6.15986 368.697 7.93651 370.889 7.93651Z" fill="#BDBDBD"/>
<path fill-rule="evenodd" clip-rule="evenodd" d="M370.889 98.4127C372.204 98.4127 373.27 97.3467 373.27 96.0318C373.27 94.7168 372.204 93.6508 370.889 93.6508C369.574 93.6508 368.508 94.7168 368.508 96.0318C368.508 97.3467 369.574 98.4127 370.889 98.4127ZM370.889 100C373.08 100 374.857 98.2234 374.857 96.0318C374.857 93.8402 373.08 92.0635 370.889 92.0635C368.697 92.0635 366.921 93.8402 366.921 96.0318C366.921 98.2234 368.697 100 370.889 100Z" fill="#BDBDBD"/>
<path fill-rule="evenodd" clip-rule="evenodd" d="M333.587 39.2857C333.587 40.6007 334.653 41.6666 335.968 41.6666C337.283 41.6666 338.349 40.6007 338.349 39.2857C338.349 37.9707 337.283 36.9047 335.968 36.9047C334.653 36.9047 333.587 37.9707 333.587 39.2857ZM332 39.2857C332 41.4773 333.777 43.254 335.968 43.254C338.16 43.254 339.937 41.4773 339.937 39.2857C339.937 37.0941 338.16 35.3174 335.968 35.3174C333.777 35.3174 332 37.0941 332 39.2857Z" fill="#BDBDBD"/>
<path fill-rule="evenodd" clip-rule="evenodd" d="M424.857 39.2857C424.857 40.6007 425.923 41.6666 427.238 41.6666C428.553 41.6666 429.619 40.6007 429.619 39.2857C429.619 37.9707 428.553 36.9047 427.238 36.9047C425.923 36.9047 424.857 37.9707 424.857 39.2857ZM423.27 39.2857C423.27 41.4773 425.046 43.254 427.238 43.254C429.43 43.254 431.206 41.4773 431.206 39.2857C431.206 37.0941 429.43 35.3174 427.238 35.3174C425.046 35.3174 423.27 37.0941 423.27 39.2857Z" fill="#BDBDBD"/>
<path fill-rule="evenodd" clip-rule="evenodd" d="M392.516 86.5079C395.475 86.5079 397.873 84.1095 397.873 81.1508C397.873 78.1921 395.475 75.7937 392.516 75.7937C389.557 75.7937 387.159 78.1921 387.159 81.1508C387.159 84.1095 389.557 86.5079 392.516 86.5079ZM392.516 88.0952C396.351 88.0952 399.46 84.9861 399.46 81.1508C399.46 77.3155 396.351 74.2064 392.516 74.2064C388.681 74.2064 385.571 77.3155 385.571 81.1508C385.571 84.9861 388.681 88.0952 392.516 88.0952Z" fill="#BDBDBD"/>
<path fill-rule="evenodd" clip-rule="evenodd" d="M356.206 39.4841C356.206 36.5254 353.808 34.127 350.849 34.127C347.891 34.127 345.492 36.5254 345.492 39.4841C345.492 42.4428 347.891 44.8413 350.849 44.8413C353.808 44.8413 356.206 42.4428 356.206 39.4841ZM357.794 39.4841C357.794 35.6488 354.685 32.5397 350.849 32.5397C347.014 32.5397 343.905 35.6488 343.905 39.4841C343.905 43.3194 347.014 46.4286 350.849 46.4286C354.685 46.4286 357.794 43.3194 357.794 39.4841Z" fill="#BDBDBD"/>
<path fill-rule="evenodd" clip-rule="evenodd" d="M417.714 39.4841C417.714 36.5254 415.316 34.127 412.357 34.127C409.398 34.127 407 36.5254 407 39.4841C407 42.4428 409.398 44.8413 412.357 44.8413C415.316 44.8413 417.714 42.4428 417.714 39.4841ZM419.302 39.4841C419.302 35.6488 416.192 32.5397 412.357 32.5397C408.522 32.5397 405.413 35.6488 405.413 39.4841C405.413 43.3194 408.522 46.4286 412.357 46.4286C416.192 46.4286 419.302 43.3194 419.302 39.4841Z" fill="#BDBDBD"/>
<path fill-rule="evenodd" clip-rule="evenodd" d="M417.714 19.246C417.714 16.2874 415.316 13.8889 412.357 13.8889C409.398 13.8889 407 16.2874 407 19.246C407 22.2047 409.398 24.6032 412.357 24.6032C415.316 24.6032 417.714 22.2047 417.714 19.246ZM419.302 19.246C419.302 15.4107 416.192 12.3016 412.357 12.3016C408.522 12.3016 405.413 15.4107 405.413 19.246C405.413 23.0814 408.522 26.1905 412.357 26.1905C416.192 26.1905 419.302 23.0814 419.302 19.246Z" fill="#BDBDBD"/>
<path fill-rule="evenodd" clip-rule="evenodd" d="M417.714 81.1508C417.714 78.1921 415.316 75.7937 412.357 75.7937C409.398 75.7937 407 78.1921 407 81.1508C407 84.1095 409.398 86.5079 412.357 86.5079C415.316 86.5079 417.714 84.1095 417.714 81.1508ZM419.302 81.1508C419.302 77.3155 416.192 74.2064 412.357 74.2064C408.522 74.2064 405.413 77.3155 405.413 81.1508C405.413 84.9861 408.522 88.0952 412.357 88.0952C416.192 88.0952 419.302 84.9861 419.302 81.1508Z" fill="#BDBDBD"/>
<path fill-rule="evenodd" clip-rule="evenodd" d="M356.206 81.1508C356.206 78.1921 353.808 75.7937 350.849 75.7937C347.891 75.7937 345.492 78.1921 345.492 81.1508C345.492 84.1095 347.891 86.5079 350.849 86.5079C353.808 86.5079 356.206 84.1095 356.206 81.1508ZM357.794 81.1508C357.794 77.3155 354.685 74.2064 350.849 74.2064C347.014 74.2064 343.905 77.3155 343.905 81.1508C343.905 84.9861 347.014 88.0952 350.849 88.0952C354.685 88.0952 357.794 84.9861 357.794 81.1508Z" fill="#BDBDBD"/>
<path fill-rule="evenodd" clip-rule="evenodd" d="M356.206 19.246C356.206 16.2874 353.808 13.8889 350.849 13.8889C347.891 13.8889 345.492 16.2874 345.492 19.246C345.492 22.2047 347.891 24.6032 350.849 24.6032C353.808 24.6032 356.206 22.2047 356.206 19.246ZM357.794 19.246C357.794 15.4107 354.685 12.3016 350.849 12.3016C347.014 12.3016 343.905 15.4107 343.905 19.246C343.905 23.0814 347.014 26.1905 350.849 26.1905C354.685 26.1905 357.794 23.0814 357.794 19.246Z" fill="#BDBDBD"/>
<path fill-rule="evenodd" clip-rule="evenodd" d="M370.69 24.6032C373.649 24.6032 376.048 22.2047 376.048 19.246C376.048 16.2874 373.649 13.8889 370.69 13.8889C367.732 13.8889 365.333 16.2874 365.333 19.246C365.333 22.2047 367.732 24.6032 370.69 24.6032ZM370.69 26.1905C374.526 26.1905 377.635 23.0814 377.635 19.246C377.635 15.4107 374.526 12.3016 370.69 12.3016C366.855 12.3016 363.746 15.4107 363.746 19.246C363.746 23.0814 366.855 26.1905 370.69 26.1905Z" fill="#BDBDBD"/>
<path fill-rule="evenodd" clip-rule="evenodd" d="M370.69 86.5079C373.649 86.5079 376.048 84.1095 376.048 81.1508C376.048 78.1921 373.649 75.7937 370.69 75.7937C367.732 75.7937 365.333 78.1921 365.333 81.1508C365.333 84.1095 367.732 86.5079 370.69 86.5079ZM370.69 88.0952C374.526 88.0952 377.635 84.9861 377.635 81.1508C377.635 77.3155 374.526 74.2064 370.69 74.2064C366.855 74.2064 363.746 77.3155 363.746 81.1508C363.746 84.9861 366.855 88.0952 370.69 88.0952Z" fill="#BDBDBD"/>
<path fill-rule="evenodd" clip-rule="evenodd" d="M356.206 61.3095C356.206 58.3509 353.808 55.9524 350.849 55.9524C347.891 55.9524 345.492 58.3509 345.492 61.3095C345.492 64.2682 347.891 66.6667 350.849 66.6667C353.808 66.6667 356.206 64.2682 356.206 61.3095ZM357.794 61.3095C357.794 57.4742 354.685 54.3651 350.849 54.3651C347.014 54.3651 343.905 57.4742 343.905 61.3095C343.905 65.1448 347.014 68.254 350.849 68.254C354.685 68.254 357.794 65.1448 357.794 61.3095Z" fill="#BDBDBD"/>
<path fill-rule="evenodd" clip-rule="evenodd" d="M417.714 61.3095C417.714 58.3509 415.316 55.9524 412.357 55.9524C409.398 55.9524 407 58.3509 407 61.3095C407 64.2682 409.398 66.6667 412.357 66.6667C415.316 66.6667 417.714 64.2682 417.714 61.3095ZM419.302 61.3095C419.302 57.4742 416.192 54.3651 412.357 54.3651C408.522 54.3651 405.413 57.4742 405.413 61.3095C405.413 65.1448 408.522 68.254 412.357 68.254C416.192 68.254 419.302 65.1448 419.302 61.3095Z" fill="#BDBDBD"/>
<path fill-rule="evenodd" clip-rule="evenodd" d="M392.516 68.6508C396.57 68.6508 399.857 65.364 399.857 61.3095C399.857 57.2551 396.57 53.9683 392.516 53.9683C388.461 53.9683 385.175 57.2551 385.175 61.3095C385.175 65.364 388.461 68.6508 392.516 68.6508ZM392.516 70.2381C397.447 70.2381 401.444 66.2406 401.444 61.3095C401.444 56.3784 397.447 52.381 392.516 52.381C387.585 52.381 383.587 56.3784 383.587 61.3095C383.587 66.2406 387.585 70.2381 392.516 70.2381Z" fill="#BDBDBD"/>
<path fill-rule="evenodd" clip-rule="evenodd" d="M370.69 68.6508C374.745 68.6508 378.032 65.364 378.032 61.3095C378.032 57.2551 374.745 53.9683 370.69 53.9683C366.636 53.9683 363.349 57.2551 363.349 61.3095C363.349 65.364 366.636 68.6508 370.69 68.6508ZM370.69 70.2381C375.622 70.2381 379.619 66.2406 379.619 61.3095C379.619 56.3784 375.622 52.381 370.69 52.381C365.759 52.381 361.762 56.3784 361.762 61.3095C361.762 66.2406 365.759 70.2381 370.69 70.2381Z" fill="#BDBDBD"/>
</g>
<path d="M394.94 303H400.33V295.65H404.425C409.92 295.65 414.33 292.71 414.33 287.04V286.97C414.33 281.965 410.795 278.5 404.95 278.5H394.94V303ZM400.33 290.855V283.365H404.495C407.19 283.365 408.87 284.66 408.87 287.075V287.145C408.87 289.245 407.295 290.855 404.6 290.855H400.33ZM417.269 303H422.659V295.16H426.824H426.894L432.144 303H438.444L432.459 294.25C435.574 293.095 437.709 290.61 437.709 286.655V286.585C437.709 284.275 436.974 282.35 435.609 280.985C433.999 279.375 431.584 278.5 428.469 278.5H417.269V303ZM422.659 290.4V283.365H428.014C430.639 283.365 432.249 284.555 432.249 286.865V286.935C432.249 289 430.744 290.4 428.119 290.4H422.659ZM453.412 303.42C460.972 303.42 466.467 297.715 466.467 290.75V290.68C466.467 283.715 461.042 278.08 453.482 278.08C445.922 278.08 440.427 283.785 440.427 290.75V290.82C440.427 297.785 445.852 303.42 453.412 303.42ZM453.482 298.45C449.142 298.45 446.062 294.95 446.062 290.75V290.68C446.062 286.48 449.072 283.05 453.412 283.05C457.752 283.05 460.832 286.55 460.832 290.75V290.82C460.832 295.02 457.822 298.45 453.482 298.45ZM470.198 303H479.753C487.453 303 492.773 297.645 492.773 290.75V290.68C492.773 283.785 487.453 278.5 479.753 278.5H470.198V303ZM475.588 298.135V283.365H479.753C484.163 283.365 487.138 286.41 487.138 290.75V290.82C487.138 295.16 484.163 298.135 479.753 298.135H475.588ZM506.746 303.385C513.326 303.385 517.491 299.745 517.491 292.325V278.5H512.101V292.535C512.101 296.42 510.106 298.415 506.816 298.415C503.526 298.415 501.531 296.35 501.531 292.36V278.5H496.141V292.5C496.141 299.71 500.166 303.385 506.746 303.385ZM527.636 303H533.026V283.47H540.481V278.5H520.181V283.47H527.636V303ZM554.417 303.42C561.977 303.42 567.472 297.715 567.472 290.75V290.68C567.472 283.715 562.047 278.08 554.487 278.08C546.927 278.08 541.432 283.785 541.432 290.75V290.82C541.432 297.785 546.857 303.42 554.417 303.42ZM554.487 298.45C550.147 298.45 547.067 294.95 547.067 290.75V290.68C547.067 286.48 550.077 283.05 554.417 283.05C558.757 283.05 561.837 286.55 561.837 290.75V290.82C561.837 295.02 558.827 298.45 554.487 298.45ZM579.747 303.35C585.032 303.35 588.742 300.62 588.742 295.755V295.685C588.742 291.415 585.942 289.63 580.972 288.335C576.737 287.25 575.687 286.725 575.687 285.115V285.045C575.687 283.855 576.772 282.91 578.837 282.91C580.902 282.91 583.037 283.82 585.207 285.325L588.007 281.265C585.522 279.27 582.477 278.15 578.907 278.15C573.902 278.15 570.332 281.09 570.332 285.535V285.605C570.332 290.47 573.517 291.835 578.452 293.095C582.547 294.145 583.387 294.845 583.387 296.21V296.28C583.387 297.715 582.057 298.59 579.852 298.59C577.052 298.59 574.742 297.435 572.537 295.615L569.352 299.43C572.292 302.055 576.037 303.35 579.747 303.35ZM601.813 303H620.468V298.205H607.168V293.06H618.718V288.265H607.168V283.295H620.293V278.5H601.813V303ZM624.211 303H629.496V287.11L636.321 297.47H636.461L643.356 287.005V303H648.711V278.5H642.901L636.461 288.86L630.021 278.5H624.211V303ZM662.989 303H672.544C680.244 303 685.564 297.645 685.564 290.75V290.68C685.564 283.785 680.244 278.5 672.544 278.5H662.989V303ZM668.379 298.135V283.365H672.544C676.954 283.365 679.929 286.41 679.929 290.75V290.82C679.929 295.16 676.954 298.135 672.544 298.135H668.379ZM689.317 303H707.972V298.205H694.672V293.06H706.222V288.265H694.672V283.295H707.797V278.5H689.317V303ZM720.43 303.35C725.715 303.35 729.425 300.62 729.425 295.755V295.685C729.425 291.415 726.625 289.63 721.655 288.335C717.42 287.25 716.37 286.725 716.37 285.115V285.045C716.37 283.855 717.455 282.91 719.52 282.91C721.585 282.91 723.72 283.82 725.89 285.325L728.69 281.265C726.205 279.27 723.16 278.15 719.59 278.15C714.585 278.15 711.015 281.09 711.015 285.535V285.605C711.015 290.47 714.2 291.835 719.135 293.095C723.23 294.145 724.07 294.845 724.07 296.21V296.28C724.07 297.715 722.74 298.59 720.535 298.59C717.735 298.59 715.425 297.435 713.22 295.615L710.035 299.43C712.975 302.055 716.72 303.35 720.43 303.35ZM738.245 303H743.635V283.47H751.09V278.5H730.79V283.47H738.245V303ZM748.94 303H754.435L756.675 297.505H767.035L769.275 303H774.91L764.41 278.325H759.44L748.94 303ZM758.6 292.745L761.855 284.8L765.11 292.745H758.6ZM797.944 303.735L801.374 299.92L798.854 297.785C800.254 295.755 801.024 293.305 801.024 290.75V290.68C801.024 283.715 795.599 278.08 788.039 278.08C780.479 278.08 774.984 283.785 774.984 290.75V290.82C774.984 297.785 780.409 303.42 787.969 303.42C790.699 303.42 793.184 302.65 795.249 301.32L797.944 303.735ZM788.039 298.45C783.699 298.45 780.619 294.95 780.619 290.75V290.68C780.619 286.48 783.629 283.05 787.969 283.05C792.309 283.05 795.389 286.55 795.389 290.75V290.82C795.389 292.045 795.179 293.165 794.724 294.18L790.699 290.54L787.269 294.39L791.259 297.785C790.314 298.205 789.229 298.45 788.039 298.45ZM814.976 303.385C821.556 303.385 825.721 299.745 825.721 292.325V278.5H820.331V292.535C820.331 296.42 818.336 298.415 815.046 298.415C811.756 298.415 809.761 296.35 809.761 292.36V278.5H804.371V292.5C804.371 299.71 808.396 303.385 814.976 303.385ZM830.161 303H848.816V298.205H835.516V293.06H847.066V288.265H835.516V283.295H848.641V278.5H830.161V303Z" fill="white"/>
</svg>
