<svg xmlns="http://www.w3.org/2000/svg" xmlns:xlink="http://www.w3.org/1999/xlink" width="1080" zoomAndPan="magnify" viewBox="0 0 810 809.999993" height="1080" preserveAspectRatio="xMidYMid meet" version="1.0"><defs><clipPath id="e744affa8f"><path d="M 400 0.339844 L 799.804688 0.339844 L 799.804688 409 L 400 409 Z M 400 0.339844 " clip-rule="nonzero"/></clipPath></defs><path fill="#202332" d="M 169.875 113.726562 C 175.046875 116.679688 176.15625 122.363281 178.527344 127.476562 C 181.339844 133.535156 185.035156 139.46875 188.171875 145.433594 C 195.269531 158.964844 202.386719 172.488281 209.515625 186.003906 C 223.605469 212.730469 237.726562 239.441406 251.804688 266.164062 C 253.902344 270.144531 256.035156 274.253906 256.414062 278.726562 C 257.4375 290.746094 237.9375 304.261719 228.847656 309.867188 C 205.75 324.125 183.414062 334.730469 167.546875 358.0625 C 165.066406 361.710938 162.777344 365.609375 161.859375 369.929688 C 159.601562 380.5625 169.976562 395.246094 174.484375 404.496094 C 180.46875 416.773438 186.902344 428.824219 193.773438 440.621094 C 207.585938 464.324219 223.171875 487 240.464844 508.304688 C 285.777344 564.140625 343.175781 610.6875 409.660156 638.816406 C 414.265625 640.765625 442.703125 610.457031 446.871094 605.582031 C 457.484375 593.164062 466.652344 579.664062 478.484375 568.300781 C 494.605469 552.824219 507.832031 546.5 527.542969 560.203125 C 566.851562 587.539062 606.988281 613.683594 647.882812 638.589844 C 704.152344 672.863281 622.476562 759.773438 586.058594 775.375 C 505.847656 809.714844 410.921875 779.96875 338.714844 740.210938 C 192.863281 659.914062 79.929688 521.738281 30.261719 362.824219 C 18.476562 325.113281 10.066406 285.558594 13.960938 246.238281 C 19.710938 188.234375 58.234375 137.921875 113.824219 119.507812 C 128.695312 114.582031 144.328125 111.953125 160 111.875 C 162.972656 111.863281 166.046875 111.953125 168.769531 113.167969 C 169.152344 113.339844 169.527344 113.53125 169.875 113.726562 " fill-opacity="1" fill-rule="nonzero"/><g clip-path="url(#e744affa8f)"><path fill="#202332" d="M 765.664062 235.191406 C 746.445312 192.332031 720.015625 153.472656 687.101562 119.695312 C 654.191406 85.914062 616.03125 58.488281 573.679688 38.160156 C 530.054688 17.230469 483.402344 4.554688 435.015625 0.480469 C 424.824219 -0.382812 415.066406 2.710938 408.261719 8.972656 C 403.003906 13.804688 400.113281 20.070312 400.121094 26.609375 C 400.125 41.246094 413.398438 53.859375 430.351562 55.3125 C 599.757812 69.570312 735.074219 208.296875 744.796875 378.023438 L 744.796875 378.039062 C 745.800781 395.015625 758.074219 408.609375 772.707031 408.992188 C 773.34375 409.007812 773.976562 409 774.609375 408.964844 C 780.464844 408.617188 786.0625 405.941406 790.550781 401.3125 C 796.992188 394.671875 800.335938 385.003906 799.734375 374.792969 C 796.921875 326.308594 785.457031 279.34375 765.664062 235.191406 " fill-opacity="1" fill-rule="nonzero"/></g><path fill="#202332" d="M 596.398438 208.078125 C 570.21875 181.214844 539.910156 159.320312 506.296875 143 C 471.695312 126.207031 434.679688 115.867188 396.269531 112.269531 C 386.742188 111.363281 377.644531 114.164062 371.316406 119.941406 C 366.546875 124.289062 363.925781 129.921875 363.933594 135.800781 L 363.863281 140.859375 L 363.863281 140.949219 C 363.875 147.636719 366.871094 154.023438 372.292969 158.933594 C 377.324219 163.488281 383.929688 166.378906 391.027344 167.058594 C 521.820312 179.304688 623.363281 283.316406 631.96875 414.386719 L 631.96875 414.402344 C 632.675781 421.488281 635.230469 428.242188 639.648438 433.382812 C 644.417969 438.925781 650.753906 442.089844 657.445312 442.269531 L 662.601562 442.339844 C 663.160156 442.355469 663.730469 442.339844 664.292969 442.3125 C 669.566406 441.996094 674.609375 439.578125 678.65625 435.367188 C 684.597656 429.1875 687.636719 420.167969 686.976562 410.621094 C 684.378906 372.132812 675.003906 334.859375 659.105469 299.835938 C 643.667969 265.816406 622.570312 234.9375 596.398438 208.078125 " fill-opacity="1" fill-rule="nonzero"/><path fill="#202332" d="M 542.246094 362.066406 C 531.808594 339.675781 517.746094 319.328125 500.441406 301.574219 C 483.140625 283.8125 463.160156 269.230469 441.054688 258.210938 C 418.328125 246.890625 393.996094 239.671875 368.730469 236.761719 C 360.234375 235.773438 351.847656 238.164062 346.289062 243.152344 C 342.277344 246.742188 340.082031 251.394531 340.097656 256.246094 L 339.929688 269.328125 L 339.929688 269.441406 C 339.964844 275.039062 342.472656 280.398438 346.992188 284.53125 C 351.101562 288.289062 356.558594 290.738281 362.367188 291.425781 C 439.308594 300.289062 500.132812 362.71875 507 439.863281 L 507.003906 439.878906 C 507.539062 445.6875 509.847656 451.199219 513.492188 455.410156 C 517.507812 460.039062 522.800781 462.683594 528.398438 462.863281 L 541.59375 463.035156 C 542.0625 463.046875 542.535156 463.039062 542.996094 463.011719 C 547.347656 462.761719 551.503906 460.726562 554.84375 457.191406 C 559.980469 451.761719 562.582031 443.441406 561.816406 434.933594 C 559.558594 409.589844 552.972656 385.074219 542.246094 362.066406 " fill-opacity="1" fill-rule="nonzero"/></svg>