<svg width="229" height="26" viewBox="0 0 229 26" fill="none" xmlns="http://www.w3.org/2000/svg">
<path d="M13.435 25.42C18.16 25.42 20.96 23.74 23.48 21.045L20.05 17.58C18.125 19.33 16.41 20.45 13.61 20.45C9.41005 20.45 6.50505 16.95 6.50505 12.75V12.68C6.50505 8.48 9.48005 5.05 13.61 5.05C16.06 5.05 17.985 6.1 19.875 7.815L23.305 3.86C21.03 1.62 18.265 0.0799996 13.645 0.0799996C6.12005 0.0799996 0.870045 5.785 0.870045 12.75V12.82C0.870045 19.855 6.22505 25.42 13.435 25.42ZM24.6449 25H30.1399L32.3799 19.505H42.7399L44.9799 25H50.6149L40.1149 0.324998H35.1449L24.6449 25ZM34.3049 14.745L37.5599 6.8L40.8149 14.745H34.3049ZM55.9067 25H61.2967V5.47H68.7517V0.499998H48.4517V5.47H55.9067V25ZM71.847 25H90.502V20.205H77.202V15.06H88.752V10.265H77.202V5.295H90.327V0.499998H71.847V25ZM106.039 25.42C110.519 25.42 113.984 23.67 116.504 21.535V10.895H105.864V15.55H111.289V19.05C109.924 20.03 108.174 20.52 106.214 20.52C101.874 20.52 98.7943 17.23 98.7943 12.75V12.68C98.7943 8.515 101.909 5.05 105.829 5.05C108.664 5.05 110.344 5.96 112.234 7.535L115.629 3.44C113.074 1.27 110.414 0.0799996 106.004 0.0799996C98.5843 0.0799996 93.1593 5.785 93.1593 12.75V12.82C93.1593 20.065 98.4093 25.42 106.039 25.42ZM132.541 25.42C140.101 25.42 145.596 19.715 145.596 12.75V12.68C145.596 5.715 140.171 0.0799996 132.611 0.0799996C125.051 0.0799996 119.556 5.785 119.556 12.75V12.82C119.556 19.785 124.981 25.42 132.541 25.42ZM132.611 20.45C128.271 20.45 125.191 16.95 125.191 12.75V12.68C125.191 8.48 128.201 5.05 132.541 5.05C136.881 5.05 139.961 8.55 139.961 12.75V12.82C139.961 17.02 136.951 20.45 132.611 20.45ZM149.327 25H154.717V17.16H158.882H158.952L164.202 25H170.502L164.517 16.25C167.632 15.095 169.767 12.61 169.767 8.655V8.585C169.767 6.275 169.032 4.35 167.667 2.985C166.057 1.375 163.642 0.499998 160.527 0.499998H149.327V25ZM154.717 12.4V5.365H160.072C162.697 5.365 164.307 6.555 164.307 8.865V8.935C164.307 11 162.802 12.4 160.177 12.4H154.717ZM173.815 25H179.205V0.499998H173.815V25ZM182.178 25H187.673L189.913 19.505H200.273L202.513 25H208.148L197.648 0.324998H192.678L182.178 25ZM191.838 14.745L195.093 6.8L198.348 14.745H191.838ZM219.252 25.35C224.537 25.35 228.247 22.62 228.247 17.755V17.685C228.247 13.415 225.447 11.63 220.477 10.335C216.242 9.25 215.192 8.725 215.192 7.115V7.045C215.192 5.855 216.277 4.91 218.342 4.91C220.407 4.91 222.542 5.82 224.712 7.325L227.512 3.265C225.027 1.27 221.982 0.149999 218.412 0.149999C213.407 0.149999 209.837 3.09 209.837 7.535V7.605C209.837 12.47 213.022 13.835 217.957 15.095C222.052 16.145 222.892 16.845 222.892 18.21V18.28C222.892 19.715 221.562 20.59 219.357 20.59C216.557 20.59 214.247 19.435 212.042 17.615L208.857 21.43C211.797 24.055 215.542 25.35 219.252 25.35Z" fill="white"/>
</svg>
