<svg width="1908" height="456" viewBox="0 0 1908 456" fill="none" xmlns="http://www.w3.org/2000/svg">
<path d="M-12 0H1893C1901.28 0 1908 6.71573 1908 15V456H-12V0Z" fill="#202332"/>
<g opacity="0.3">
<path fill-rule="evenodd" clip-rule="evenodd" d="M815.69 46.8254C819.745 46.8254 823.032 43.5386 823.032 39.4841C823.032 35.4296 819.745 32.1428 815.69 32.1428C811.636 32.1428 808.349 35.4296 808.349 39.4841C808.349 43.5386 811.636 46.8254 815.69 46.8254ZM815.69 48.4127C820.622 48.4127 824.619 44.4152 824.619 39.4841C824.619 34.553 820.622 30.5555 815.69 30.5555C810.759 30.5555 806.762 34.553 806.762 39.4841C806.762 44.4152 810.759 48.4127 815.69 48.4127Z" fill="#BDBDBD"/>
<path fill-rule="evenodd" clip-rule="evenodd" d="M837.516 46.8254C841.57 46.8254 844.857 43.5386 844.857 39.4841C844.857 35.4296 841.57 32.1428 837.516 32.1428C833.461 32.1428 830.175 35.4296 830.175 39.4841C830.175 43.5386 833.461 46.8254 837.516 46.8254ZM837.516 48.4127C842.447 48.4127 846.444 44.4152 846.444 39.4841C846.444 34.553 842.447 30.5555 837.516 30.5555C832.585 30.5555 828.587 34.553 828.587 39.4841C828.587 44.4152 832.585 48.4127 837.516 48.4127Z" fill="#BDBDBD"/>
<path fill-rule="evenodd" clip-rule="evenodd" d="M837.516 24.6032C840.475 24.6032 842.873 22.2047 842.873 19.2461C842.873 16.2874 840.475 13.8889 837.516 13.8889C834.557 13.8889 832.159 16.2874 832.159 19.2461C832.159 22.2047 834.557 24.6032 837.516 24.6032ZM837.516 26.1905C841.351 26.1905 844.46 23.0814 844.46 19.2461C844.46 15.4108 841.351 12.3016 837.516 12.3016C833.681 12.3016 830.571 15.4108 830.571 19.2461C830.571 23.0814 833.681 26.1905 837.516 26.1905Z" fill="#BDBDBD"/>
<path fill-rule="evenodd" clip-rule="evenodd" d="M837.714 6.34921C839.029 6.34921 840.095 5.28322 840.095 3.96825C840.095 2.65329 839.029 1.5873 837.714 1.5873C836.399 1.5873 835.333 2.65329 835.333 3.96825C835.333 5.28322 836.399 6.34921 837.714 6.34921ZM837.714 7.93651C839.906 7.93651 841.683 6.15986 841.683 3.96825C841.683 1.77665 839.906 0 837.714 0C835.523 0 833.746 1.77665 833.746 3.96825C833.746 6.15986 835.523 7.93651 837.714 7.93651Z" fill="#BDBDBD"/>
<path fill-rule="evenodd" clip-rule="evenodd" d="M837.714 98.4127C839.029 98.4127 840.095 97.3467 840.095 96.0317C840.095 94.7168 839.029 93.6508 837.714 93.6508C836.399 93.6508 835.333 94.7168 835.333 96.0317C835.333 97.3467 836.399 98.4127 837.714 98.4127ZM837.714 100C839.906 100 841.683 98.2233 841.683 96.0317C841.683 93.8401 839.906 92.0635 837.714 92.0635C835.523 92.0635 833.746 93.8401 833.746 96.0317C833.746 98.2233 835.523 100 837.714 100Z" fill="#BDBDBD"/>
<path fill-rule="evenodd" clip-rule="evenodd" d="M778.587 61.1111C778.587 62.426 779.653 63.492 780.968 63.492C782.283 63.492 783.349 62.426 783.349 61.1111C783.349 59.7961 782.283 58.7301 780.968 58.7301C779.653 58.7301 778.587 59.7961 778.587 61.1111ZM777 61.1111C777 63.3027 778.777 65.0793 780.968 65.0793C783.16 65.0793 784.937 63.3027 784.937 61.1111C784.937 58.9195 783.16 57.1428 780.968 57.1428C778.777 57.1428 777 58.9195 777 61.1111Z" fill="#BDBDBD"/>
<path fill-rule="evenodd" clip-rule="evenodd" d="M869.857 61.5079C869.857 62.8229 870.923 63.8889 872.238 63.8889C873.553 63.8889 874.619 62.8229 874.619 61.5079C874.619 60.193 873.553 59.127 872.238 59.127C870.923 59.127 869.857 60.193 869.857 61.5079ZM868.27 61.5079C868.27 63.6995 870.046 65.4762 872.238 65.4762C874.43 65.4762 876.206 63.6995 876.206 61.5079C876.206 59.3163 874.43 57.5397 872.238 57.5397C870.046 57.5397 868.27 59.3163 868.27 61.5079Z" fill="#BDBDBD"/>
<path fill-rule="evenodd" clip-rule="evenodd" d="M815.889 6.34921C817.204 6.34921 818.27 5.28322 818.27 3.96825C818.27 2.65329 817.204 1.5873 815.889 1.5873C814.574 1.5873 813.508 2.65329 813.508 3.96825C813.508 5.28322 814.574 6.34921 815.889 6.34921ZM815.889 7.93651C818.08 7.93651 819.857 6.15986 819.857 3.96825C819.857 1.77665 818.08 0 815.889 0C813.697 0 811.921 1.77665 811.921 3.96825C811.921 6.15986 813.697 7.93651 815.889 7.93651Z" fill="#BDBDBD"/>
<path fill-rule="evenodd" clip-rule="evenodd" d="M815.889 98.4127C817.204 98.4127 818.27 97.3467 818.27 96.0317C818.27 94.7168 817.204 93.6508 815.889 93.6508C814.574 93.6508 813.508 94.7168 813.508 96.0317C813.508 97.3467 814.574 98.4127 815.889 98.4127ZM815.889 100C818.08 100 819.857 98.2233 819.857 96.0317C819.857 93.8401 818.08 92.0635 815.889 92.0635C813.697 92.0635 811.921 93.8401 811.921 96.0317C811.921 98.2233 813.697 100 815.889 100Z" fill="#BDBDBD"/>
<path fill-rule="evenodd" clip-rule="evenodd" d="M778.587 39.2858C778.587 40.6007 779.653 41.6667 780.968 41.6667C782.283 41.6667 783.349 40.6007 783.349 39.2858C783.349 37.9708 782.283 36.9048 780.968 36.9048C779.653 36.9048 778.587 37.9708 778.587 39.2858ZM777 39.2858C777 41.4774 778.777 43.254 780.968 43.254C783.16 43.254 784.937 41.4774 784.937 39.2858C784.937 37.0942 783.16 35.3175 780.968 35.3175C778.777 35.3175 777 37.0942 777 39.2858Z" fill="#BDBDBD"/>
<path fill-rule="evenodd" clip-rule="evenodd" d="M869.857 39.2858C869.857 40.6007 870.923 41.6667 872.238 41.6667C873.553 41.6667 874.619 40.6007 874.619 39.2858C874.619 37.9708 873.553 36.9048 872.238 36.9048C870.923 36.9048 869.857 37.9708 869.857 39.2858ZM868.27 39.2858C868.27 41.4774 870.046 43.254 872.238 43.254C874.43 43.254 876.206 41.4774 876.206 39.2858C876.206 37.0942 874.43 35.3175 872.238 35.3175C870.046 35.3175 868.27 37.0942 868.27 39.2858Z" fill="#BDBDBD"/>
<path fill-rule="evenodd" clip-rule="evenodd" d="M837.516 86.5079C840.475 86.5079 842.873 84.1094 842.873 81.1507C842.873 78.1921 840.475 75.7936 837.516 75.7936C834.557 75.7936 832.159 78.1921 832.159 81.1507C832.159 84.1094 834.557 86.5079 837.516 86.5079ZM837.516 88.0952C841.351 88.0952 844.46 84.9861 844.46 81.1507C844.46 77.3154 841.351 74.2063 837.516 74.2063C833.681 74.2063 830.571 77.3154 830.571 81.1507C830.571 84.9861 833.681 88.0952 837.516 88.0952Z" fill="#BDBDBD"/>
<path fill-rule="evenodd" clip-rule="evenodd" d="M801.206 39.4841C801.206 36.5255 798.808 34.127 795.849 34.127C792.891 34.127 790.492 36.5255 790.492 39.4841C790.492 42.4428 792.891 44.8413 795.849 44.8413C798.808 44.8413 801.206 42.4428 801.206 39.4841ZM802.794 39.4841C802.794 35.6488 799.685 32.5397 795.849 32.5397C792.014 32.5397 788.905 35.6488 788.905 39.4841C788.905 43.3195 792.014 46.4286 795.849 46.4286C799.685 46.4286 802.794 43.3195 802.794 39.4841Z" fill="#BDBDBD"/>
<path fill-rule="evenodd" clip-rule="evenodd" d="M862.714 39.4841C862.714 36.5255 860.316 34.127 857.357 34.127C854.398 34.127 852 36.5255 852 39.4841C852 42.4428 854.398 44.8413 857.357 44.8413C860.316 44.8413 862.714 42.4428 862.714 39.4841ZM864.302 39.4841C864.302 35.6488 861.192 32.5397 857.357 32.5397C853.522 32.5397 850.413 35.6488 850.413 39.4841C850.413 43.3195 853.522 46.4286 857.357 46.4286C861.192 46.4286 864.302 43.3195 864.302 39.4841Z" fill="#BDBDBD"/>
<path fill-rule="evenodd" clip-rule="evenodd" d="M862.714 19.246C862.714 16.2873 860.316 13.8888 857.357 13.8888C854.398 13.8888 852 16.2873 852 19.246C852 22.2047 854.398 24.6031 857.357 24.6031C860.316 24.6031 862.714 22.2047 862.714 19.246ZM864.302 19.246C864.302 15.4107 861.192 12.3015 857.357 12.3015C853.522 12.3015 850.413 15.4107 850.413 19.246C850.413 23.0813 853.522 26.1904 857.357 26.1904C861.192 26.1904 864.302 23.0813 864.302 19.246Z" fill="#BDBDBD"/>
<path fill-rule="evenodd" clip-rule="evenodd" d="M862.714 81.1508C862.714 78.1921 860.316 75.7936 857.357 75.7936C854.398 75.7936 852 78.1921 852 81.1508C852 84.1094 854.398 86.5079 857.357 86.5079C860.316 86.5079 862.714 84.1094 862.714 81.1508ZM864.302 81.1508C864.302 77.3155 861.192 74.2063 857.357 74.2063C853.522 74.2063 850.413 77.3155 850.413 81.1508C850.413 84.9861 853.522 88.0952 857.357 88.0952C861.192 88.0952 864.302 84.9861 864.302 81.1508Z" fill="#BDBDBD"/>
<path fill-rule="evenodd" clip-rule="evenodd" d="M801.206 81.1508C801.206 78.1921 798.808 75.7936 795.849 75.7936C792.891 75.7936 790.492 78.1921 790.492 81.1508C790.492 84.1094 792.891 86.5079 795.849 86.5079C798.808 86.5079 801.206 84.1094 801.206 81.1508ZM802.794 81.1508C802.794 77.3155 799.685 74.2063 795.849 74.2063C792.014 74.2063 788.905 77.3155 788.905 81.1508C788.905 84.9861 792.014 88.0952 795.849 88.0952C799.685 88.0952 802.794 84.9861 802.794 81.1508Z" fill="#BDBDBD"/>
<path fill-rule="evenodd" clip-rule="evenodd" d="M801.206 19.246C801.206 16.2873 798.808 13.8888 795.849 13.8888C792.891 13.8888 790.492 16.2873 790.492 19.246C790.492 22.2047 792.891 24.6031 795.849 24.6031C798.808 24.6031 801.206 22.2047 801.206 19.246ZM802.794 19.246C802.794 15.4107 799.685 12.3015 795.849 12.3015C792.014 12.3015 788.905 15.4107 788.905 19.246C788.905 23.0813 792.014 26.1904 795.849 26.1904C799.685 26.1904 802.794 23.0813 802.794 19.246Z" fill="#BDBDBD"/>
<path fill-rule="evenodd" clip-rule="evenodd" d="M815.69 24.6032C818.649 24.6032 821.048 22.2047 821.048 19.2461C821.048 16.2874 818.649 13.8889 815.69 13.8889C812.732 13.8889 810.333 16.2874 810.333 19.2461C810.333 22.2047 812.732 24.6032 815.69 24.6032ZM815.69 26.1905C819.526 26.1905 822.635 23.0814 822.635 19.2461C822.635 15.4108 819.526 12.3016 815.69 12.3016C811.855 12.3016 808.746 15.4108 808.746 19.2461C808.746 23.0814 811.855 26.1905 815.69 26.1905Z" fill="#BDBDBD"/>
<path fill-rule="evenodd" clip-rule="evenodd" d="M815.69 86.5079C818.649 86.5079 821.048 84.1094 821.048 81.1507C821.048 78.1921 818.649 75.7936 815.69 75.7936C812.732 75.7936 810.333 78.1921 810.333 81.1507C810.333 84.1094 812.732 86.5079 815.69 86.5079ZM815.69 88.0952C819.526 88.0952 822.635 84.9861 822.635 81.1507C822.635 77.3154 819.526 74.2063 815.69 74.2063C811.855 74.2063 808.746 77.3154 808.746 81.1507C808.746 84.9861 811.855 88.0952 815.69 88.0952Z" fill="#BDBDBD"/>
<path fill-rule="evenodd" clip-rule="evenodd" d="M801.206 61.3095C801.206 58.3508 798.808 55.9523 795.849 55.9523C792.891 55.9523 790.492 58.3508 790.492 61.3095C790.492 64.2681 792.891 66.6666 795.849 66.6666C798.808 66.6666 801.206 64.2681 801.206 61.3095ZM802.794 61.3095C802.794 57.4742 799.685 54.365 795.849 54.365C792.014 54.365 788.905 57.4742 788.905 61.3095C788.905 65.1448 792.014 68.2539 795.849 68.2539C799.685 68.2539 802.794 65.1448 802.794 61.3095Z" fill="#BDBDBD"/>
<path fill-rule="evenodd" clip-rule="evenodd" d="M862.714 61.3095C862.714 58.3508 860.316 55.9523 857.357 55.9523C854.398 55.9523 852 58.3508 852 61.3095C852 64.2681 854.398 66.6666 857.357 66.6666C860.316 66.6666 862.714 64.2681 862.714 61.3095ZM864.302 61.3095C864.302 57.4742 861.192 54.365 857.357 54.365C853.522 54.365 850.413 57.4742 850.413 61.3095C850.413 65.1448 853.522 68.2539 857.357 68.2539C861.192 68.2539 864.302 65.1448 864.302 61.3095Z" fill="#BDBDBD"/>
<path fill-rule="evenodd" clip-rule="evenodd" d="M837.516 68.6508C841.57 68.6508 844.857 65.364 844.857 61.3096C844.857 57.2551 841.57 53.9683 837.516 53.9683C833.461 53.9683 830.175 57.2551 830.175 61.3096C830.175 65.364 833.461 68.6508 837.516 68.6508ZM837.516 70.2381C842.447 70.2381 846.444 66.2407 846.444 61.3096C846.444 56.3784 842.447 52.381 837.516 52.381C832.585 52.381 828.587 56.3784 828.587 61.3096C828.587 66.2407 832.585 70.2381 837.516 70.2381Z" fill="#BDBDBD"/>
<path fill-rule="evenodd" clip-rule="evenodd" d="M815.69 68.6508C819.745 68.6508 823.032 65.364 823.032 61.3096C823.032 57.2551 819.745 53.9683 815.69 53.9683C811.636 53.9683 808.349 57.2551 808.349 61.3096C808.349 65.364 811.636 68.6508 815.69 68.6508ZM815.69 70.2381C820.622 70.2381 824.619 66.2407 824.619 61.3096C824.619 56.3784 820.622 52.381 815.69 52.381C810.759 52.381 806.762 56.3784 806.762 61.3096C806.762 66.2407 810.759 70.2381 815.69 70.2381Z" fill="#BDBDBD"/>
</g>
</svg>
